Coordinates
version=1
nRows=65
nColumns=12
inDegrees=yes

Units are S.I. units (second, meters, Newtons, ...)
Angles are in degrees

endheader
time	SC_y	SC_z	SC_x	AC_y	AC_z	AC_x	GH_y	GH_z	GH_yy	EL_x	PS_y
       0.0              -41.26          14.83          20.54          36.62         -16.12          17.76          107.8          1.257          8.896          78.34          29.13
   0.01354              -41.26          14.83          20.54          36.62         -16.12          17.76          107.8          1.256          8.899          78.34          29.14
   0.02708              -41.26          14.83          20.54          36.63         -16.12          17.76          107.8          1.256          8.901          78.34          29.14
   0.04062              -41.26          14.83          20.53          36.63         -16.12          17.76          107.8          1.255          8.904          78.34          29.15
   0.05416              -41.25          14.83          20.53          36.63         -16.12          17.75          107.8          1.255          8.907          78.34          29.16
    0.0677              -41.25          14.83          20.53          36.63         -16.12          17.75          107.8          1.254           8.91          78.34          29.17
   0.08124              -41.25          14.83          20.53          36.64         -16.12          17.75          107.8          1.254          8.913          78.33          29.18
   0.09478              -41.24          14.83          20.52          36.64         -16.12          17.75          107.8          1.253          8.916          78.33           29.2
    0.1083              -41.24          14.83          20.52          36.64         -16.12          17.75          107.8          1.253           8.92          78.33          29.21
    0.1219              -41.24          14.83          20.52          36.65         -16.12          17.75          107.8          1.252          8.924          78.33          29.22
    0.1354              -41.23          14.83          20.52          36.65         -16.12          17.75          107.8          1.252          8.928          78.32          29.24
    0.1489              -41.23          14.83          20.51          36.66         -16.12          17.75          107.8          1.251          8.933          78.32          29.25
    0.1625              -41.22          14.83          20.51          36.66         -16.12          17.74          107.9           1.25          8.937          78.32          29.27
     0.176              -41.21          14.83           20.5          36.67         -16.12          17.74          107.9          1.249          8.943          78.32          29.29
    0.1896              -41.21          14.83           20.5          36.67         -16.12          17.74          107.9          1.248          8.948          78.31          29.31
    0.2031               -41.2          14.83           20.5          36.68         -16.12          17.74          107.9          1.247          8.955          78.31          29.33
    0.2166              -41.19          14.83          20.49          36.68         -16.11          17.73          107.9          1.246          8.961           78.3          29.35
    0.2302              -41.19          14.83          20.48          36.69         -16.11          17.73          107.9          1.245          8.969           78.3          29.38
    0.2437              -41.18          14.83          20.48           36.7         -16.11          17.73          107.9          1.244          8.977           78.3           29.4
    0.2573              -41.17          14.83          20.47          36.71         -16.11          17.73          107.9          1.243          8.985          78.29          29.43
    0.2708              -41.16          14.83          20.46          36.72         -16.11          17.72          108.0          1.241          8.995          78.28          29.47
    0.2843              -41.15          14.83          20.46          36.73         -16.11          17.72          108.0          1.239          9.006          78.28           29.5
    0.2979              -41.13          14.84          20.45          36.74         -16.11          17.71          108.0          1.238          9.017          78.27          29.54
    0.3114              -41.12          14.84          20.44          36.75          -16.1          17.71          108.0          1.236           9.03          78.26          29.59
     0.325              -41.11          14.84          20.43          36.77          -16.1           17.7          108.1          1.233          9.045          78.25          29.64
    0.3385              -41.09          14.84          20.41          36.78          -16.1           17.7          108.1          1.231          9.061          78.24          29.69
     0.352              -41.07          14.84           20.4           36.8          -16.1          17.69          108.1          1.228          9.079          78.23          29.76
    0.3656              -41.05          14.84          20.38          36.82         -16.09          17.68          108.2          1.225          9.099          78.22          29.82
    0.3791              -41.02          14.84          20.37          36.84         -16.09          17.67          108.2          1.221          9.122          78.21           29.9
    0.3927              -40.99          14.84          20.35          36.87         -16.09          17.66          108.2          1.217          9.148          78.19          29.99
    0.4062              -40.96          14.84          20.33           36.9         -16.08          17.65          108.3          1.212          9.177          78.17          30.09
    0.4197              -40.93          14.84           20.3          36.93         -16.08          17.64          108.4          1.207          9.211          78.15          30.21
    0.4333              -40.88          14.84          20.27          36.97         -16.07          17.63          108.4          1.201          9.251          78.13          30.35
    0.4468              -40.83          14.84          20.23          37.02         -16.06          17.61          108.5          1.194          9.296           78.1           30.5
    0.4604              -40.78          14.85          20.19          37.07         -16.06          17.59          108.6          1.185           9.35          78.07          30.69
    0.4739              -40.71          14.85          20.15          37.13         -16.05          17.57          108.7          1.175          9.413          78.03           30.9
    0.4874              -40.63          14.85          20.09           37.2         -16.04          17.54          108.9          1.164          9.488          77.99          31.16
     0.501              -40.53          14.85          20.02          37.29         -16.02           17.5          109.0           1.15          9.577          77.93          31.47
    0.5145              -40.41          14.86          19.94           37.4         -16.01          17.46          109.3          1.133          9.686          77.87          31.84
    0.5281              -40.27          14.86          19.84          37.53         -15.99          17.41          109.5          1.112          9.818          77.79           32.3
    0.5416               -40.1          14.86          19.71          37.69         -15.96          17.35          109.8          1.086          9.982          77.69          32.86
    0.5551              -39.88          14.87          19.56          37.89         -15.93          17.28          110.2          1.054          10.19          77.56          33.56
    0.5687               -39.6          14.88          19.36          38.15         -15.89          17.18          110.7          1.014          10.44          77.41          34.45
    0.5822              -39.25          14.89          19.11          38.47         -15.85          17.06          111.3         0.9625          10.77          77.21          35.57
    0.5957               -38.8           14.9          18.79          38.88         -15.78           16.9          112.1         0.8968          11.19          76.96          37.01
    0.6093              -38.22          14.92          18.38          39.41          -15.7           16.7          113.1         0.8126          11.72          76.63          38.86
    0.6228              -37.48          14.94          17.86          40.08          -15.6          16.45          114.4          0.705          12.41          76.22          41.22
    0.6364              -36.55          14.97           17.2          40.93         -15.47          16.13          116.0         0.5697          13.27           75.7          44.18
    0.6499              -35.42           15.0           16.4          41.97         -15.32          15.73          117.9         0.4048          14.32          75.06          47.79
    0.6634              -34.11          15.04          15.47          43.17         -15.14          15.28          120.2         0.2137          15.54          74.33          51.98
     0.677              -32.69          15.08          14.47          44.47         -14.94          14.79          122.7       0.006749          16.86          73.53          56.52
    0.6905              -31.27          15.12          13.46          45.77         -14.75          14.29          125.2        -0.2002          18.17          72.73          61.05
    0.7041              -29.95          15.15          12.53          46.97         -14.57          13.84          127.4        -0.3913          19.39           72.0          65.24
    0.7176              -28.82          15.19          11.73           48.0         -14.41          13.45          129.4        -0.5562          20.44          71.36          68.85
    0.7311              -27.89          15.21          11.08          48.85         -14.28          13.13          131.0        -0.6915           21.3          70.84          71.82
    0.7447              -27.16          15.23          10.55          49.53         -14.18          12.87          132.3        -0.7991          21.99          70.43          74.18
    0.7582              -26.58          15.25          10.14          50.06          -14.1          12.67          133.3        -0.8833          22.52           70.1          76.02
    0.7718              -26.13          15.26          9.825          50.47         -14.04          12.51          134.1         -0.949          22.94          69.85          77.46
    0.7853              -25.77          15.27          9.576          50.79         -13.99          12.39          134.7           -1.0          23.27          69.65          78.59
    0.7988               -25.5          15.28           9.38          51.05         -13.95           12.3          135.2         -1.041          23.53           69.5          79.47
    0.8124              -25.28          15.29          9.225          51.25         -13.92          12.22          135.6         -1.073          23.73          69.37          80.17
    0.8259               -25.1          15.29            9.1          51.41          -13.9          12.16          135.9         -1.098          23.89          69.27          80.74
    0.8395              -24.96           15.3          8.999          51.54         -13.88          12.11          136.1         -1.119          24.03          69.19          81.19
     0.853              -24.84           15.3          8.916          51.65         -13.86          12.07          136.3         -1.136          24.13          69.13          81.57
    0.8665              -24.75           15.3          8.848          51.73         -13.85          12.03          136.5          -1.15          24.22          69.07          81.87
